<?xml version="1.0" encoding="UTF-8"?>
<svg width="512" height="512" viewBox="0 0 512 512" fill="none" xmlns="http://www.w3.org/2000/svg">
  <!-- Background -->
  <rect width="512" height="512" rx="64" fill="#3B82F6"/>
  
  <!-- Building icon -->
  <g transform="translate(96, 64)">
    <!-- Main building -->
    <rect x="80" y="80" width="160" height="320" fill="white" stroke="#1E40AF" stroke-width="4"/>
    
    <!-- Roof -->
    <polygon points="70,80 160,20 250,80" fill="#1E40AF"/>
    
    <!-- Windows -->
    <rect x="100" y="120" width="30" height="40" fill="#3B82F6"/>
    <rect x="190" y="120" width="30" height="40" fill="#3B82F6"/>
    <rect x="100" y="200" width="30" height="40" fill="#3B82F6"/>
    <rect x="190" y="200" width="30" height="40" fill="#3B82F6"/>
    <rect x="100" y="280" width="30" height="40" fill="#3B82F6"/>
    <rect x="190" y="280" width="30" height="40" fill="#3B82F6"/>
    
    <!-- Door -->
    <rect x="145" y="340" width="30" height="60" fill="#1E40AF"/>
    
    <!-- Side buildings -->
    <rect x="20" y="150" width="60" height="250" fill="white" stroke="#1E40AF" stroke-width="3"/>
    <rect x="240" y="180" width="60" height="220" fill="white" stroke="#1E40AF" stroke-width="3"/>
    
    <!-- Small windows -->
    <rect x="30" y="180" width="15" height="20" fill="#3B82F6"/>
    <rect x="55" y="180" width="15" height="20" fill="#3B82F6"/>
    <rect x="30" y="240" width="15" height="20" fill="#3B82F6"/>
    <rect x="55" y="240" width="15" height="20" fill="#3B82F6"/>
    
    <rect x="250" y="210" width="15" height="20" fill="#3B82F6"/>
    <rect x="275" y="210" width="15" height="20" fill="#3B82F6"/>
    <rect x="250" y="270" width="15" height="20" fill="#3B82F6"/>
    <rect x="275" y="270" width="15" height="20" fill="#3B82F6"/>
  </g>
  
  <!-- Text -->
  <text x="256" y="460" font-family="Arial, sans-serif" font-size="24" font-weight="bold" text-anchor="middle" fill="white">נדל״ן Pro</text>
</svg>
